<?xml version="1.0" encoding="UTF-8"?>
<!DOCTYPE svg PUBLIC "-//W3C//DTD SVG 1.1//EN" "http://www.w3.org/Graphics/SVG/1.1/DTD/svg11.dtd">
<svg xmlns="http://www.w3.org/2000/svg" xml:space="preserve" width="130mm" height="60mm" version="1.1" style="shape-rendering:geometricPrecision; text-rendering:geometricPrecision; image-rendering:optimizeQuality; fill-rule:evenodd; clip-rule:evenodd"
viewBox="0 0 13000 6000"
 xmlns:xlink="http://www.w3.org/1999/xlink">
 <defs>
  <style type="text/css">
   <![CDATA[
    .fil1 {fill:#3E474A}
    .fil2 {fill:#47B353}
    .fil0 {fill:#FEFEFE}
   ]]>
  </style>
 </defs>
 <g id="Capa_x0020_1">
  <g id="Page-1">
   <g id="Group-48">
    <g>
     <path id="Fill-2" class="fil0" d="M4702.94 1579.79l-1515.38 -899.52c-180.88,-107.38 -403.82,-107.38 -584.68,0l-1515.38 899.52c-180.82,107.36 -292.26,305.76 -292.26,520.5l0 1799.06c0,214.68 111.44,413.16 292.32,520.54l1515.38 899.36c90.42,53.72 191.28,80.5 292.3,80.5 100.98,0 201.82,-26.78 292.26,-80.5l1515.38 -899.36c180.86,-107.38 292.36,-305.86 292.36,-520.54l0 -1799.06c0,-214.74 -111.5,-413.14 -292.3,-520.5z"/>
     <g>
      <path id="Fill-4" class="fil1" d="M2655.9 5227.15l-1515.38 -899.36c-148.22,-88 -240.3,-252.16 -240.3,-428.48l0 -1799c0,-176.32 92.08,-340.46 240.26,-428.42l1515.42 -899.52c72.66,-43.14 155.42,-65.94 239.34,-65.94 83.88,0 166.64,22.8 239.34,65.94l1515.38 899.52c124.88,74.14 209.12,202.52 232.84,346.5 -50.28,-107.26 -163.62,-136.42 -295.7,-59.26l-1433.62 885.5c-178.76,104.52 -310.58,221.78 -310.68,437.3l0 1766.52c-0.1,129.06 52.02,212.68 132.08,236.92 -26.3,4.54 -52.82,7.72 -79.64,7.72 -83.92,0 -166.68,-22.82 -239.34,-65.94l0 0zm2047.02 -3647.38l-1515.36 -899.48c-90.44,-53.72 -191.4,-80.54 -292.32,-80.54 -100.96,0 -201.92,26.82 -292.36,80.54l-1515.38 899.48c-180.82,107.36 -292.26,305.8 -292.26,520.54l0 1799c0,214.68 111.44,413.18 292.32,520.54l1515.36 899.44c90.5,53.64 191.36,80.48 292.32,80.48 100.96,0 201.82,-26.84 292.26,-80.48l1515.42 -899.44c180.88,-107.36 292.32,-305.86 292.32,-520.54l0 -1799c0,-214.74 -111.44,-413.18 -292.32,-520.54z"/>
     </g>
     <path id="Fill-6" class="fil2" d="M4305.7 4073.25l-377.36 225.84c-10,5.82 -17.36,12.38 -17.4,24.4l0 98.74c0,12.06 8.08,17.1 18.1,11.22l383.16 -232.88c10,-5.82 11.54,-17 11.58,-29l0 -87.1c0,-12.02 -8.08,-17.04 -18.08,-11.22z"/>
     <path id="Fill-8" class="fil0" d="M3502.16 3242.11c12.22,-6.2 22.28,1.42 22.44,17.4l1.26 130.54c54.68,-21.74 102.14,-27.56 145.16,-17.62 9.32,2.5 13.44,15.2 9.64,30.28l-28.74 115.66c-2.22,8.74 -7.14,17.58 -13.08,23.08 -2.48,2.44 -5.02,4.34 -7.56,5.6 -3.86,1.96 -7.68,2.6 -11.32,1.86 -19.64,-4.44 -66.3,-14.66 -139.76,22.54 -77.04,39 -103.98,105.94 -103.44,155.64 0.62,59.32 31.06,77.3 136.14,79.1 140.02,2.34 200.5,63.5 201.98,204.52 1.44,138.48 -72.48,287.18 -185.58,378.3l2.5 129.22c0.16,15.56 -9.96,33.4 -22.18,39.6l-76.52 44.06c-12.28,6.2 -22.32,-1.42 -22.48,-16.98l-1.32 -127.1c-65.56,27.24 -131.98,33.82 -174.42,16.78 -7.98,-3.12 -11.42,-14.94 -8.26,-28.38l27.74 -116.84c2.22,-9.2 7.08,-18.4 13.7,-24.28 2.32,-2.28 4.76,-4.02 7.2,-5.24 4.38,-2.22 8.68,-2.7 12.32,-1.32 45.72,15.4 104.2,8.2 160.44,-20.26 71.44,-36.16 119.24,-109.02 118.48,-181.4 -0.68,-65.68 -36.24,-92.98 -122.7,-93.62 -110.08,0.32 -212.68,-21.38 -214.36,-183.4 -1.38,-133.4 67.98,-272.2 177.8,-360l-1.38 -130.44c-0.16,-16.04 9.62,-33.66 22.22,-40l74.08 -47.3z"/>
     <path id="Fill-10" class="fil1" d="M6009.14 3134.95l333.94 0c47.16,1.48 91.3,9.1 131.24,22.54 38.04,12.7 71.5,31.06 99.48,54.52 27.36,22.96 48.38,50.36 64.04,83.54 15.34,32.76 22.8,71.6 22,116.84 0,42.72 -8.4,80.76 -25.08,113.14 -17.2,33.44 -39.78,60.86 -68.84,83.72 -30.32,23.76 -65.94,42.64 -105.78,56.14 -40.64,13.7 -84.3,21.12 -128.42,21.8l-322.58 0 0 -552.24zm573.66 -492.06c-17.4,29.58 -39.52,53.8 -67.62,74.02 -29.16,20.9 -63.14,37.26 -101.18,48.42 -39.48,11.7 -80.38,18 -120.12,18.74l-284.74 0 0 -470.96 276.26 0c44.4,0.78 88.28,6.3 130.5,16.46 38.84,9.26 73.34,23.8 102.44,43.06 27.26,18.06 48.42,40.64 64.78,69.02 15.6,27.18 23.54,62.06 23.54,103.6 0,38.32 -7.82,70.22 -23.86,97.64l0 0zm372.28 426.72c-37.8,-45.62 -83.36,-85.1 -135.42,-117.32 -6.4,-3.92 -12.86,-7.72 -19.42,-11.48 41.54,-27.74 78.48,-60.38 109.96,-97.16 33.66,-39.32 60.38,-84.14 79.58,-133.08 19.32,-49.28 29.64,-104.04 30.74,-163.3 1.06,-102.78 -20.48,-193.2 -64.08,-268.88 -42.86,-74.4 -101.12,-136.42 -173.08,-184.52 -69.8,-46.52 -150.18,-81.28 -238.98,-103.4 -85.98,-21.38 -175.16,-32.7 -265.9,-33.66l-606.58 0c-42.34,0 -76.68,32.66 -76.68,72.92l0 1939.46c0,40.26 34.34,72.92 76.68,72.92l653.62 0c94.08,-0.96 186.74,-15.14 275.38,-42.08 90.02,-27.4 170.86,-67.52 240.34,-119.32 71.12,-52.98 128.6,-119.6 170.82,-197.96 42.92,-79.48 64.14,-171.62 63.08,-273.06 0,-65.6 -10.64,-127.9 -31.54,-185.1 -20.9,-57.14 -50.7,-109.26 -88.52,-154.98l0 0z"/>
     <path id="Fill-12" class="fil1" d="M8197.86 3179.69l-334.86 0 168.76 -520 166.1 520zm16.78 -1172.04c-10.1,-30.28 -39.64,-50.8 -73.08,-50.8l-217.12 0c-33.28,0 -62.7,20.36 -72.92,50.48l-658.44 1939.5c-7.52,22.18 -3.44,46.4 11.02,65.3 14.44,18.84 37.46,29.94 61.96,29.94l259.18 0c33.56,0 63.24,-20.78 73.18,-51.26l147.16 -450.96 567.54 0 144.56 450.64c9.84,30.68 39.64,51.58 73.34,51.58l257.76 0c24.46,0 47.42,-11.06 61.86,-29.84 14.46,-18.72 18.58,-42.92 11.18,-65.08l-647.18 -1939.5z"/>
     <path id="Fill-14" class="fil1" d="M10419.3 3144.55c-34.66,-44.46 -75.56,-84.62 -121.76,-119.54 -44.4,-33.66 -92.82,-64.14 -143.88,-90.8 -50.12,-26.14 -103.08,-49.64 -157.48,-69.96 -52.28,-19.36 -105.26,-37.14 -158.18,-53.02 -44.86,-13.08 -92.92,-28.42 -142.82,-45.56 -46.3,-15.82 -89.8,-35.88 -129.32,-59.64 -35.78,-21.48 -65.52,-47.9 -88.48,-78.54 -19.9,-26.56 -29.96,-59.52 -30.58,-99.58 0,-39.74 7.78,-72.92 23.86,-101.6 16.82,-29.9 38.74,-54.4 67,-74.78 29.26,-21.16 63.44,-37.34 101.54,-48.1 89.12,-25.24 189.08,-21.48 261.3,5.36 39.1,14.5 73.18,35.02 101.12,60.84 28.36,26.26 51.54,58.38 68.96,95.42 18.3,39 30.9,83.44 37.4,132.02 4.82,36.36 37.42,63.66 76.04,63.66l266.12 0c20.64,0 40.38,-7.84 54.78,-21.86 14.44,-13.96 22.32,-32.9 21.9,-52.48 -2.12,-99.38 -25.14,-191.14 -68.48,-272.64 -42.86,-80.38 -100.7,-149.9 -171.82,-206.68 -70.16,-55.94 -151.6,-99.86 -242.04,-130.7 -171.6,-58.38 -362.32,-61.5 -544.5,-7.58 -87.64,25.98 -167.22,64.66 -236.54,114.84 -70.7,51.1 -128.7,114.72 -172.4,188.86 -45.08,76.4 -67.94,163.66 -67.94,259.44 0,96.42 23.22,182.24 69,255.16 43.44,69.16 100.16,129.96 168.58,180.62 65.88,48.84 139.7,90.48 219.34,123.82 76.48,32.02 152.68,59.74 226.64,82.54 48.58,14.88 99.22,31.38 151.94,49.7 47.88,16.66 92.34,37.68 132.02,62.44 36.4,22.7 65.3,49.74 88.16,82.54 20.16,29 29.94,65.04 29.94,110.28 0,40.22 -8.36,73.08 -25.54,100.44 -18.8,29.9 -42.3,53.92 -71.76,73.44 -30.7,20.22 -66.42,35.46 -106.42,45.2 -95.88,23.5 -200.18,19.8 -282.42,-5.46 -44.08,-13.48 -83.34,-33.64 -116.68,-59.94 -33.22,-26.2 -60.86,-58.8 -82.18,-96.78 -21.7,-38.64 -36.3,-84.36 -43.44,-135.74 -5.02,-36.24 -37.58,-63.34 -76,-63.34l-264.74 0c-20.74,0 -40.58,7.94 -54.98,22.06 -14.44,14.14 -22.28,33.24 -21.68,52.92 3.16,103.88 29.58,198.38 78.52,280.88 47.78,80.6 110.86,149.76 187.44,205.68 75.18,55.04 161.5,97.74 256.42,126.9 94.04,28.84 191.52,43.44 289.72,43.44 87.84,0 176.86,-11.9 264.48,-35.34 89.22,-23.86 170.6,-60.16 241.84,-107.8 73.02,-48.84 133.4,-110.74 179.38,-184.14 47.62,-75.94 71.76,-165.2 71.76,-265.12 0,-65.46 -10.16,-126.62 -30.16,-181.7 -19.8,-54.36 -47.68,-104.84 -82.98,-150.08z"/>
     <path id="Fill-16" class="fil1" d="M12118.56 1956.83l-245.18 0c-42.32,0 -76.66,32.6 -76.66,72.88l0 760.98 -682.96 0 0 -760.98c0,-40.28 -34.28,-72.88 -76.62,-72.88l-243.78 0c-42.34,0 -76.68,32.6 -76.68,72.88l0 1939.5c0,40.26 34.34,72.86 76.68,72.86l243.78 0c42.34,0 76.62,-32.6 76.62,-72.86l0 -823.6 682.96 0 0 823.6c0,40.26 34.34,72.86 76.66,72.86l245.18 0c42.32,0 76.66,-32.6 76.66,-72.86l0 -1939.5c0,-40.28 -34.34,-72.88 -76.66,-72.88z"/>
     <polygon id="Fill-18" class="fil1" points="5829.68,4378.25 5736.92,4378.25 5736.92,4626.43 5687.34,4626.43 5687.34,4378.25 5595.22,4378.25 5595.22,4339.15 5829.68,4339.15 "/>
     <polygon id="Fill-20" class="fil1" points="6115.28,4626.43 6066.74,4626.43 6066.74,4498.23 5964.04,4498.23 5964.04,4626.43 5915.68,4626.43 5915.68,4339.15 5964.04,4339.15 5964.04,4459.33 6066.74,4459.33 6066.74,4339.15 6115.28,4339.15 "/>
     <polygon id="Fill-22" class="fil1" points="6400.48,4497.61 6276.18,4497.61 6276.18,4587.79 6421.64,4587.79 6421.64,4626.41 6226.16,4626.41 6226.16,4339.19 6420.16,4339.19 6420.16,4378.23 6276.18,4378.23 6276.18,4459.31 6400.48,4459.31 "/>
     <path id="Fill-24" class="fil1" d="M6880.98 4496.23l0 91.56 54.34 0c7.88,-0.12 15.08,-1.28 21.6,-3.44 6.5,-2.18 12.06,-5.2 16.82,-9 4.66,-3.82 8.36,-8.48 11.06,-14.02 2.7,-5.5 4.08,-11.64 4.08,-18.52 0,-7.26 -1.18,-13.72 -3.56,-19.42 -2.38,-5.78 -5.76,-10.6 -10.16,-14.56 -4.44,-3.92 -9.84,-6.98 -16.18,-9.16 -6.36,-2.16 -13.5,-3.28 -21.38,-3.44l-56.62 0zm0 -36.14l47.72 0c7.46,-0.1 14.4,-1.06 20.86,-2.86 6.4,-1.74 11.96,-4.38 16.66,-7.88 4.72,-3.44 8.48,-7.72 11.22,-12.8 2.76,-5.08 4.14,-10.9 4.14,-17.42 0,-7.24 -1.28,-13.44 -3.92,-18.62 -2.66,-5.08 -6.36,-9.32 -11.12,-12.6 -4.76,-3.22 -10.36,-5.66 -16.88,-7.2 -6.5,-1.52 -13.66,-2.32 -21.38,-2.48l-47.3 0 0 81.86zm-50 166.38l0 -287.3 96.46 0c14.54,0.16 28.1,1.76 40.74,4.78 12.7,3 23.76,7.72 33.24,14.02 9.46,6.3 16.88,14.34 22.28,24.12 5.4,9.8 8.04,21.44 7.88,34.88 -0.1,14.18 -4.28,26.3 -12.44,36.36 -8.14,10.1 -19.16,17.88 -32.96,23.38 8.4,2.22 15.92,5.46 22.48,9.58 6.56,4.12 12.06,9.1 16.52,14.86 4.38,5.82 7.82,12.24 10.16,19.22 2.32,7.08 3.54,14.54 3.54,22.44 0,13.64 -2.64,25.72 -7.94,36.08 -5.24,10.38 -12.54,19.06 -21.86,26.04 -9.36,6.98 -20.42,12.28 -33.18,15.88 -12.8,3.64 -26.6,5.54 -41.42,5.66l-103.5 0z"/>
     <path id="Fill-26" class="fil1" d="M7289.8 4464.31c-0.1,-10.8 -1.16,-21.54 -3.12,-32.18 -1.9,-10.64 -5.18,-20.16 -9.74,-28.48 -4.6,-8.4 -10.62,-15.12 -18.14,-20.36 -7.58,-5.2 -17,-7.78 -28.32,-7.78 -11.22,0 -20.52,2.58 -27.94,7.78 -7.34,5.24 -13.28,12 -17.62,20.42 -4.38,8.42 -7.4,17.88 -9.16,28.52 -1.68,10.58 -2.64,21.28 -2.8,32.08l0 37.04c0.16,10.78 1.16,21.48 2.92,32.12 1.84,10.58 4.86,20.1 9.26,28.56 4.34,8.48 10.26,15.36 17.62,20.64 7.4,5.24 16.72,7.88 27.94,7.88 11.32,0 20.74,-2.64 28.3,-7.88 7.52,-5.28 13.56,-12.12 18.16,-20.52 4.54,-8.48 7.78,-17.94 9.62,-28.64 1.86,-10.64 2.92,-21.38 3.02,-32.16l0 -37.04zm50.02 37.04c0,16.98 -2.28,33.28 -6.88,48.84 -4.56,15.6 -11.38,29.32 -20.44,41.26 -9.04,11.86 -20.36,21.34 -34.02,28.38 -13.6,7.04 -29.52,10.52 -47.78,10.52 -18.16,0 -33.92,-3.54 -47.32,-10.64 -13.44,-7.08 -24.6,-16.6 -33.54,-28.46 -8.88,-11.9 -15.6,-25.62 -20.1,-41.18 -4.5,-15.5 -6.72,-31.74 -6.72,-48.72l0 -36.68c0,-11.32 0.94,-22.32 3,-33.12 1.96,-10.8 4.98,-20.96 8.9,-30.54 3.96,-9.52 8.88,-18.3 14.7,-26.4 5.88,-8.1 12.82,-15.04 20.76,-20.8 7.98,-5.82 16.98,-10.38 26.98,-13.66 10.06,-3.22 21.06,-4.92 33.12,-4.92 18.26,0 34.18,3.56 47.84,10.7 13.6,7.08 24.98,16.62 34.14,28.46 9.1,11.96 15.92,25.72 20.48,41.38 4.6,15.62 6.88,31.92 6.88,48.9l0 36.68z"/>
     <path id="Fill-28" class="fil1" d="M7635.36 4339.17l0.42 192.4c-0.16,14.72 -2.64,28.22 -7.46,40.34 -4.86,12.16 -11.64,22.58 -20.38,31.26 -8.68,8.68 -19.2,15.4 -31.64,20.12 -12.32,4.7 -26.2,7.08 -41.54,7.08 -14.98,0 -28.52,-2.38 -40.7,-7.08 -12.16,-4.72 -22.58,-11.38 -31.32,-20 -8.72,-8.64 -15.5,-19.06 -20.32,-31.22 -4.86,-12.12 -7.36,-25.68 -7.46,-40.5l0.42 -192.4 48.96 0 0.36 192.4c0.16,8.8 1.32,16.88 3.54,24.24 2.24,7.42 5.4,13.72 9.58,19 4.14,5.34 9.26,9.52 15.46,12.5 6.14,2.96 13.28,4.44 21.48,4.44 8.26,0 15.62,-1.48 21.96,-4.44 6.36,-2.98 11.7,-7.16 15.98,-12.5 4.28,-5.28 7.52,-11.58 9.8,-19 2.16,-7.36 3.32,-15.44 3.48,-24.24l0.42 -192.4 48.96 0z"/>
     <path id="Fill-30" class="fil1" d="M7793.38 4476.13l45.82 0c8.3,0 15.92,-1.12 22.86,-3.34 6.88,-2.28 12.86,-5.44 17.94,-9.58 5.02,-4.18 8.94,-9.2 11.7,-15.24 2.74,-5.92 4.18,-12.86 4.18,-20.58 0,-8.04 -1.32,-15.14 -3.98,-21.28 -2.64,-6.24 -6.4,-11.42 -11.32,-15.66 -4.86,-4.18 -10.84,-7.34 -17.94,-9.52 -7.04,-2.16 -14.92,-3.34 -23.64,-3.44l-45.62 0 0 98.64zm50.58 38.26l-50.58 0 0 112.02 -49.8 0 0 -287.24 95.42 0c15.5,0.16 29.78,2.02 42.86,5.68 13.06,3.58 24.38,8.98 33.92,16.14 9.58,7.18 16.92,16.14 22.16,26.92 5.3,10.8 7.88,23.4 7.88,37.9 0,9.74 -1.32,18.56 -4.02,26.5 -2.7,8 -6.44,15.2 -11.32,21.64 -4.82,6.42 -10.64,12.08 -17.4,16.94 -6.78,4.92 -14.24,9.06 -22.4,12.44l63.88 120.76 0 2.32 -53.08 0 -57.52 -112.02z"/>
     <polygon id="Fill-32" class="fil1" points="8242.04,4626.43 8191.82,4626.43 8093.5,4428.79 8093.28,4626.43 8042.86,4626.43 8042.86,4339.15 8093.28,4339.15 8191.24,4536.33 8191.66,4339.15 8242.04,4339.15 "/>
     <polygon id="Fill-34" class="fil1" points="8527.44,4497.61 8403.14,4497.61 8403.14,4587.79 8548.6,4587.79 8548.6,4626.41 8353.14,4626.41 8353.14,4339.19 8547.12,4339.19 8547.12,4378.23 8403.14,4378.23 8403.14,4459.31 8527.44,4459.31 "/>
     <polygon id="Fill-36" class="fil1" points="8675.08,4519.49 8841.24,4519.49 8841.24,4481.45 8675.08,4481.45 "/>
     <path id="Fill-38" class="fil1" d="M9022.88 4519.31l69.26 0 -34.18 -112.62 -35.08 112.62zm81.74 40.48l-94.4 0 -20.74 66.66 -51.48 0 98.16 -287.28 43.76 0 96.3 287.28 -51.28 0 -20.32 -66.66z"/>
     <path id="Fill-39" class="fil1" d="M9464.7 4590.55c-5.08,5.78 -11.12,11.12 -18.06,16 -6.92,4.86 -14.66,9.04 -23.22,12.58 -8.58,3.56 -17.9,6.3 -27.9,8.32 -10.04,1.96 -20.74,2.9 -32.06,2.9 -18.14,0 -34.18,-3.34 -48.16,-10.06 -13.96,-6.66 -25.76,-15.82 -35.34,-27.46 -9.64,-11.68 -16.94,-25.4 -22.02,-41.16 -5.02,-15.78 -7.62,-32.76 -7.78,-50.9l0 -35.46c0,-18.2 2.5,-35.14 7.46,-50.9 4.98,-15.84 12.12,-29.54 21.5,-41.28 9.36,-11.76 20.78,-20.96 34.34,-27.68 13.54,-6.82 29.04,-10.22 46.46,-10.22 15.6,0 29.58,2.08 41.9,6.1 12.34,4.12 22.92,10 31.76,17.72 8.84,7.68 15.88,17.04 21.06,28.1 5.18,11 8.46,23.38 9.84,37.1l-48.94 0c-1.22,-7.78 -3.18,-14.78 -5.82,-20.9 -2.66,-6.2 -6.14,-11.5 -10.6,-15.84 -4.44,-4.34 -9.78,-7.62 -16.08,-9.94 -6.3,-2.32 -13.7,-3.44 -22.28,-3.44 -10.52,0 -19.52,2.44 -27.1,7.36 -7.5,4.98 -13.74,11.58 -18.72,19.94 -4.98,8.36 -8.68,18.06 -11.06,29 -2.34,11.02 -3.6,22.5 -3.7,34.46l0 35.88c0.1,11.94 1.42,23.44 3.8,34.34 2.44,10.9 6.24,20.58 11.44,28.88 5.18,8.36 11.84,15.04 20,20.06 8.2,4.98 17.98,7.56 29.46,7.68 4.72,0 9.58,-0.28 14.56,-0.86 4.98,-0.62 9.74,-1.58 14.18,-2.86 4.5,-1.36 8.62,-3 12.38,-5.02 3.72,-2.12 6.78,-4.6 9.1,-7.68l0.44 -57.4 -54.56 0 0 -36.84 103.28 0 0.44 109.48z"/>
     <path id="Fill-40" class="fil1" d="M9630.58 4519.31l69.28 0 -34.2 -112.62 -35.08 112.62zm81.76 40.48l-94.4 0 -20.74 66.66 -51.5 0 98.16 -287.28 43.76 0 96.32 287.28 -51.28 0 -20.32 -66.66z"/>
     <polygon id="Fill-41" class="fil1" points="9876.34,4339.17 10056.06,4339.17 10056.06,4378.43 9990.7,4378.43 9990.7,4587.41 10056.06,4587.41 10056.06,4626.45 9876.34,4626.45 9876.34,4587.41 9940.26,4587.41 9940.26,4378.43 9876.34,4378.43 "/>
     <polygon id="Fill-42" class="fil1" points="10369,4626.43 10318.78,4626.43 10220.46,4428.79 10220.26,4626.43 10169.82,4626.43 10169.82,4339.15 10220.26,4339.15 10318.2,4536.33 10318.62,4339.15 10369,4339.15 "/>
     <path id="Fill-43" class="fil1" d="M10938.1 4552.47c0,-6.84 -1.48,-12.86 -4.44,-18.04 -3.02,-5.24 -7.2,-9.74 -12.7,-13.76 -5.46,-3.92 -11.9,-7.36 -19.48,-10.32 -7.52,-2.96 -15.72,-5.66 -24.6,-8.2 -11.86,-3.28 -23.6,-7.36 -35.14,-12.24 -11.58,-4.86 -21.86,-10.84 -30.9,-17.82 -9.1,-7.04 -16.4,-15.3 -22.02,-24.72 -5.6,-9.36 -8.4,-20.22 -8.4,-32.6 0,-12.38 2.8,-23.44 8.4,-33.28 5.62,-9.78 13.12,-18.04 22.5,-24.92 9.42,-6.82 20.36,-12.12 32.8,-15.82 12.44,-3.66 25.46,-5.5 39,-5.5 14.56,0 28.1,2.16 40.8,6.4 12.64,4.28 23.7,10.32 33.18,17.98 9.48,7.68 16.98,16.88 22.48,27.58 5.56,10.74 8.36,22.64 8.52,35.66l-49.78 0c-0.7,-7.24 -2.34,-13.86 -4.88,-19.84 -2.58,-5.98 -6.18,-11.16 -10.78,-15.5 -4.66,-4.34 -10.28,-7.68 -16.94,-10.06 -6.62,-2.38 -14.3,-3.54 -23.02,-3.54 -7.46,0 -14.4,0.94 -20.74,2.74 -6.36,1.8 -11.86,4.56 -16.52,8.1 -4.6,3.54 -8.24,7.84 -10.84,12.8 -2.64,5.04 -3.98,10.7 -3.98,17 0,6.72 1.8,12.54 5.4,17.46 3.6,4.92 8.32,9.26 14.08,12.9 5.82,3.72 12.54,6.88 20.06,9.58 7.56,2.7 15.4,5.14 23.54,7.36 12.6,3.6 24.62,7.94 36.1,13.18 11.48,5.18 21.58,11.42 30.32,18.74 8.68,7.3 15.6,15.76 20.74,25.34 5.08,9.58 7.68,20.58 7.68,32.96 0,12.76 -2.86,23.98 -8.52,33.72 -5.66,9.72 -13.28,17.94 -22.82,24.44 -9.58,6.56 -20.64,11.54 -33.18,14.92 -12.58,3.34 -25.76,5.02 -39.46,5.02 -9.26,0 -18.42,-0.84 -27.58,-2.58 -9.16,-1.64 -17.88,-4.24 -26.24,-7.68 -8.36,-3.38 -16.14,-7.62 -23.34,-12.7 -7.2,-5.08 -13.44,-10.94 -18.78,-17.56 -5.3,-6.68 -9.54,-14.08 -12.54,-22.34 -3.08,-8.2 -4.66,-17.24 -4.78,-27.08l49.96 0c0.74,8.66 2.7,16.18 6.04,22.64 3.32,6.46 7.72,11.86 13.28,16.08 5.56,4.3 12,7.58 19.42,9.74 7.4,2.12 15.56,3.24 24.56,3.24 7.5,0 14.48,-0.9 20.94,-2.54 6.52,-1.76 12.22,-4.3 17.04,-7.62 4.82,-3.4 8.64,-7.52 11.44,-12.5 2.74,-4.92 4.12,-10.52 4.12,-16.82z"/>
     <polygon id="Fill-44" class="fil1" points="11280.76,4626.43 11232.22,4626.43 11232.22,4498.23 11129.52,4498.23 11129.52,4626.43 11081.16,4626.43 11081.16,4339.15 11129.52,4339.15 11129.52,4459.33 11232.22,4459.33 11232.22,4339.15 11280.76,4339.15 "/>
     <polygon id="Fill-45" class="fil1" points="11565.96,4497.61 11441.66,4497.61 11441.66,4587.79 11587.12,4587.79 11587.12,4626.41 11391.64,4626.41 11391.64,4339.19 11585.64,4339.19 11585.64,4378.23 11441.66,4378.23 11441.66,4459.31 11565.96,4459.31 "/>
     <polygon id="Fill-46" class="fil1" points="11747.4,4587.81 11891.38,4587.81 11891.38,4626.43 11697.6,4626.43 11697.6,4339.21 11747.4,4339.21 "/>
     <polygon id="Fill-47" class="fil1" points="12051.26,4587.81 12195.24,4587.81 12195.24,4626.43 12001.46,4626.43 12001.46,4339.21 12051.26,4339.21 "/>
    </g>
   </g>
  </g>
 </g>
</svg>
