<?xml version="1.0" encoding="UTF-8"?>
<!DOCTYPE svg PUBLIC "-//W3C//DTD SVG 1.1//EN" "http://www.w3.org/Graphics/SVG/1.1/DTD/svg11.dtd">
<svg xmlns="http://www.w3.org/2000/svg" xml:space="preserve" width="100mm" height="100mm" version="1.1" style=" fill-rule:evenodd; clip-rule:evenodd"
viewBox="0 0 10000 10000"
 xmlns:xlink="http://www.w3.org/1999/xlink">
 <defs>
  <style type="text/css">
   <![CDATA[
    .fil1 {fill:#1C5491}
    .fil0 {fill:#2570C1}
    .fil2 {fill:#90CAF9}
   ]]>
  </style>
 </defs>
 <g id="Capa_x0020_1">
  <path class="fil0" d="M238.38 3633.49c80.28,1394.14 226.1,2854.26 329.73,4269.24 21.32,291.25 25.21,572.54 316.01,620.83 167.37,27.79 6668.42,5.78 7344.61,5.78 1035.66,0 1029.95,88.03 1094.78,-727.68 90.72,-1141.48 169.53,-2287.03 265.83,-3430.59 89.09,-1057.98 203.98,-1136.98 -574.7,-1136.64l-8287.99 -0.04c-332.42,-0.73 -509.23,35.14 -488.27,399.1z"/>
  <path class="fil1" d="M639.17 3212.52c2223.89,43.64 6038.5,7.81 8606.46,6.52 -0.21,-237.46 17.37,-540.65 -1.88,-761.83 -22.12,-253.92 -206.41,-298.8 -467.22,-297.57l-3858.2 1.23c-280.31,0.16 -444.28,24.34 -629.51,-147.82 -341.09,-316.99 -162.49,-666.52 -870.87,-663.53l-2310.19 -0.14c-278.1,-1.68 -452.78,42.3 -468.95,320.01 -27.29,468.79 -6.97,1065.04 0.36,1543.13z"/>
  <path class="fil2" d="M1084.91 3221.27c-3.18,-470.47 191.12,-452.47 618.29,-452.31l6454.08 0c437.16,-0.08 642.49,-30.24 643.65,450.31 0,0 -7716.02,2 -7716.02,2z"/>
 </g>
</svg>
