<?xml version="1.0" encoding="UTF-8"?>
<!DOCTYPE svg PUBLIC "-//W3C//DTD SVG 1.1//EN" "http://www.w3.org/Graphics/SVG/1.1/DTD/svg11.dtd">
<svg xmlns="http://www.w3.org/2000/svg" xml:space="preserve" width="100mm" height="100mm" version="1.1" style="fill-rule:evenodd; clip-rule:evenodd"
viewBox="0 0 10000 10000"
 xmlns:xlink="http://www.w3.org/1999/xlink">
 <defs>
  <style type="text/css">
   <![CDATA[
    .fil2 {fill:#143F6D}
    .fil1 {fill:#1C5491}
    .fil0 {fill:#2570C1}
    .fil3 {fill:#FDFDFD}
   ]]>
  </style>
 </defs>
 <g id="Capa_x0020_1">
  <path class="fil0" d="M533.55 9485.44c187.64,-187.08 8861.05,-8836.8 8957.7,-8933.16 -83.78,-93.02 -359.95,-276.67 -618.36,-273.73 -86.59,-2.94 -6770.39,-2.94 -7705.8,-2.94 -438.51,0 -916.98,368.27 -916.98,938.36 1.16,921.47 8.18,7529.47 10.09,7607.84 2.57,319.85 144.43,512.77 273.35,663.63z"/>
  <path class="fil1" d="M5009.38 5020.48c22.11,21.07 4399.46,4387.13 4485.83,4472.26 152,-151.95 273.44,-383.04 275.67,-663.52 -2.05,-889.44 -2.23,-7444.31 -4.01,-7613.47 1.78,-296.59 -140.67,-539.27 -275.68,-663.52 -115.13,114.78 -4437.26,4423.84 -4481.81,4468.25z"/>
  <path class="fil2" d="M540.49 9475.87c128.34,143.65 386.15,281.12 645.29,277.81l7660.1 13.76c240.09,-2.09 489.34,-114.36 656.56,-282.01 -59.32,-56.24 -4437.82,-4432.35 -4481.79,-4476.18 -48.96,48.81 -4442.57,4429.14 -4480.16,4466.62z"/>
  <path class="fil3" d="M2534.82 7667.02c171.07,162.5 447.78,226.64 709.3,-1.45l2299.21 -2292.48c62.72,-62.54 152.15,-187.7 148.21,-354.76 -3.94,-167.06 -94.94,-308.35 -146.18,-352.73 0,0 -1705.89,-1703.13 -2299.83,-2288.39 -274,-253.86 -569.12,-152.36 -714.39,-6.93 -114.12,105.44 -260.78,417.76 -8.1,697.16 85.51,82.96 1528.55,1483.92 1923.24,1948.29 -578.73,575.52 -1330.95,1368.96 -1909.89,1944.25 -219.8,211.98 -172.64,544.54 -1.57,707.04z"/>
  <path class="fil3" d="M7414.13 6808.28c0,0 -1871.42,-6.62 -1871.42,-6.62 -324.82,1.83 -507.6,276.71 -499.95,506.62 7.65,229.91 185.65,490.98 499.95,493.38 1.94,0 1505.45,6.05 1870.31,6.62 290.57,3.53 495.9,-239.62 500,-500 2.98,-189.38 -153.52,-499.82 -498.89,-500z"/>
 </g>
</svg>
