<?xml version="1.0" encoding="UTF-8"?>
<!DOCTYPE svg PUBLIC "-//W3C//DTD SVG 1.1//EN" "http://www.w3.org/Graphics/SVG/1.1/DTD/svg11.dtd">
<svg xmlns="http://www.w3.org/2000/svg" xml:space="preserve" width="96mm" height="96mm" version="1.1" style="shape-rendering:geometricPrecision; text-rendering:geometricPrecision; image-rendering:optimizeQuality; fill-rule:evenodd; clip-rule:evenodd"
viewBox="0 0 9600 9600"
 xmlns:xlink="http://www.w3.org/1999/xlink"
 xmlns:xodm="http://www.corel.com/coreldraw/odm/2003">
 <defs>
  <style type="text/css">
   <![CDATA[
    .fil0 {fill:#273295}
    .fil1 {fill:#3745AC}
    .fil2 {fill:#5C6AC1}
    .fil3 {fill:#FEFEFE}
   ]]>
  </style>
 </defs>
 <g id="Capa_x0020_1">
  <metadata id="CorelCorpID_0Corel-Layer"/>
  <g id="_1378529552896">
   <path class="fil0" d="M4819.53 9377.8c-48.95,-5.82 -107.16,-22.49 -146.84,-40.22 -66.15,-30.43 -3754.44,-2102.64 -3800.74,-2135.72 -64.82,-45.77 -125.68,-124.88 -153.99,-200.29 42.26,-15.77 3027.36,-1668.82 4064.54,-2261.53 933.22,527.59 4155.34,2287.86 4215.61,2293.81 54.53,13.63 -136.91,177.3 -164.05,194.2 -82.02,50.27 -3717.4,2088.89 -3761.85,2109.26 -68.79,31.75 -182.56,49.74 -252.68,40.22l0 0.27z"/>
   <path class="fil1" d="M8864.48 6994.96c-1125.18,-620.22 -2251.73,-1237.32 -3376.88,-1858.17 -373.06,-205.05 -700.97,-389.44 -708.64,-394.73 120.41,-68.82 4095,-2363.8 4118.07,-2378.15 12.44,-4.5 23.28,-11.38 23.28,-13.76 0,-15.88 22.49,-0.79 52.39,36.51 39.16,46.83 66.94,100.54 84.67,163.51 11.38,41.01 11.91,129.65 11.91,2202.66 0,2078.3 -0.79,2161.12 -11.91,2199.48 -7.41,21.7 -18.52,53.71 -25.93,71.44 -11.38,25.93 -16.67,30.96 -30.96,30.96 -9.26,0 -64.82,-26.46 -123.03,-58.74l-12.97 -1.01z"/>
   <path class="fil2" d="M731.72 7019.57l-1.51 -2.07c7.4,11.12 15.87,21.17 19.31,21.17 170.79,-87.5 8144.66,-4649.69 8153.59,-4655.39 41.01,-16.67 40.22,-21.17 -3.97,-63.5 -22.49,-21.96 -52.92,-47.1 -67.47,-56.36 -14.56,-9.53 -501.65,-281.78 -1081.62,-605.37 -819.99,-458.04 -1638.85,-919.76 -2460.89,-1373.98 -134.41,-74.61 -232.83,-125.67 -261.41,-134.14 -109.27,-33.6 -222.51,-33.07 -327.55,2.12 -34.93,11.91 -607.75,329.15 -1931.46,1069.45 -1881.19,1053.04 -1881.19,1053.04 -1942.04,1112.57 -51.59,51.06 -64.82,68.79 -91.28,122.5 -54.77,112.45 -51.07,-93.93 -48.95,2311.93 2.12,2143.12 2.12,2143.12 16.67,2186.25 8.74,23.81 21.17,52.91 28.58,64.82z"/>
   <path class="fil3" d="M4694.39 7833.96c-1479.7,-85.6 -2698.59,-1221.84 -2883.96,-2696.11 -215,-1689.46 989.69,-3233.89 2676,-3447.52 1050.9,-133.67 2129.35,298.46 2789.77,1127.13 93.93,117.74 251.88,349.25 246.59,362.48 -2.65,5.82 -1301.75,754.06 -1328.21,764.12 -2.65,1.32 -20.37,-20.37 -39.16,-48.42 -543.14,-805.15 -1687.5,-915.47 -2371.99,-232.03 -660.55,657.67 -587.17,1765.38 165.36,2324.37 717.76,531.06 1749.06,347.01 2223.29,-404.81 30.96,-48.42 30.96,-48.42 140.76,11.91 943.24,518.58 1238.25,681.83 1238.25,686.59 0,18.52 -157.96,256.12 -240.77,361.95 -624.65,801.55 -1603.51,1251.33 -2616.2,1190.63l0.27 -0.29z"/>
  </g>
 </g>
</svg>
