<?xml version="1.0" encoding="UTF-8"?>
<!DOCTYPE svg PUBLIC "-//W3C//DTD SVG 1.1//EN" "http://www.w3.org/Graphics/SVG/1.1/DTD/svg11.dtd">
<!-- Creator: CorelDRAW 2020 (64-Bit) -->
<svg xmlns="http://www.w3.org/2000/svg" xml:space="preserve" width="100mm" height="100mm" version="1.1" style="shape-rendering:geometricPrecision; text-rendering:geometricPrecision; image-rendering:optimizeQuality; fill-rule:evenodd; clip-rule:evenodd"
viewBox="0 0 10000 10000"
 xmlns:xlink="http://www.w3.org/1999/xlink">
 <defs>
  <style type="text/css">
   <![CDATA[
    .line1 {fill:none;stroke:white;stroke-width:1000;stroke-linecap:round;stroke-linejoin:round;stroke-miterlimit:22.9256}
    .fil0 {fill:#2570C1}
    .fil1 {fill:#1C5491}
    .fil2 {fill:#143F6D}
   ]]>
  </style>
 </defs>
<metadata id="CorelCorpID_0Corel-Layer"/>
<path class="fil0" d="M533.97 9487.03c0,0 8861.89,-8837.31 8958.54,-8933.67 -83.78,-93.02 -361.21,-277.75 -619.62,-274.81 -86.59,-2.94 -6770.39,-2.94 -7705.8,-2.94 -438.51,0 -916.98,368.27 -916.98,938.36 1.16,921.47 8.18,7529.47 10.09,7607.84 2.57,319.85 144.85,514.36 273.77,665.22z"/>
<path class="fil1" d="M4992.18 5003.94c22.11,21.07 4416.66,4403.67 4503.03,4488.8 152,-151.95 273.44,-383.04 275.67,-663.52 -2.05,-889.44 -2.23,-7444.31 -4.01,-7613.47 1.78,-296.59 -140.83,-539.51 -275.84,-663.76 0.43,0.48 -4454.3,4407.54 -4498.85,4451.95z"/>
<path class="fil2" d="M529.19 9481.76c128.34,143.65 397.45,275.23 656.59,271.92l7660.1 13.76c240.09,-2.09 489.34,-114.36 656.56,-282.01 -59.32,-56.24 -4437.82,-4432.35 -4481.79,-4476.18 -48.96,48.81 -4453.87,4435.03 -4491.46,4472.51z"/>
<line class="line1" x1="5542.76" y1="7308.28" x2="7412.56" y2= "7307.98" />
<polyline class="line1" points="2885.48,2723.23 5191.54,5018.33 2884.74,7308.29 "/>
</svg>
