<?xml version="1.0" encoding="UTF-8"?>
<!DOCTYPE svg PUBLIC "-//W3C//DTD SVG 1.1//EN" "http://www.w3.org/Graphics/SVG/1.1/DTD/svg11.dtd">
<svg xmlns="http://www.w3.org/2000/svg" xml:space="preserve" width="96mm" height="96mm" version="1.1" style="fill-rule:evenodd; clip-rule:evenodd"
viewBox="0 0 9600 9600"
 xmlns:xlink="http://www.w3.org/1999/xlink">
 <defs>
  <style type="text/css">
   <![CDATA[
    .fil0 {fill:#143F6D}
    .fil3 {fill:#1C5491}
    .fil1 {fill:#2570C1}
    .fil2 {fill:white}
   ]]>
  </style>
 </defs>
 <g id="Capa_x0020_1">
  <path class="fil0" d="M4530.82 9331.41c0,0 -3664.94,-2053.6 -3664.94,-2053.6 -132.17,-75.65 -153.74,-123.24 -193.86,-193.94 0,0 4127.25,-2314.09 4127.25,-2314.09 0,0 4128.05,2313.39 4128.05,2313.39 -42.63,79.08 -57.32,116.08 -182.98,186.55 0,0 -3620.01,2034.49 -3664.46,2054.86 -139.86,78.43 -415.27,81.86 -549.06,6.83z"/>
  <path class="fil1" d="M677.54 7093.4c0,0 8244.78,-4623.38 8253.71,-4629.08 -42.14,-73.03 -118.53,-144.37 -199.73,-192.75 0,0 -3664.64,-2052.12 -3664.64,-2052.12 -133.79,-75.03 -403.98,-71.74 -547.2,6.7 -873.1,508.3 -3662.58,2053.82 -3666.86,2057.97 -124.31,67.96 -249.94,298.68 -249.94,452.64 0,684.71 0,4085.2 0,4085.2 0,119.42 27.21,190.57 74.66,271.44z"/>
  <path class="fil2" d="M4799.36 1698.5c1706.56,0 3090,1383.44 3090,3090 0,1706.56 -1383.44,3090 -3090,3090 -1706.56,0 -3090,-1383.44 -3090,-3090 0,-1706.56 1383.44,-3090 3090,-3090zm0 1550c850.52,0 1540,689.48 1540,1540 0,850.52 -689.48,1540 -1540,1540 -850.52,0 -1540,-689.48 -1540,-1540 0,-850.52 689.48,-1540 1540,-1540z"/>
  <path class="fil3" d="M4788.79 4775.66c398.62,-223.69 4130.83,-2316.44 4137.47,-2319.99 36.25,62.84 69.39,172.99 69.39,273.71 0,855.22 0,4078.78 0,4078.78 0,160.34 -23.82,194.36 -73.86,285.31 -1.69,0 -4122.52,-2311.91 -4133,-2317.81z"/>
 </g>
</svg>
