<?xml version="1.0" encoding="UTF-8"?>
<!DOCTYPE svg PUBLIC "-//W3C//DTD SVG 1.1//EN" "http://www.w3.org/Graphics/SVG/1.1/DTD/svg11.dtd">
<svg xmlns="http://www.w3.org/2000/svg" xml:space="preserve" width="96mm" height="96mm" version="1.1" style="shape-rendering:geometricPrecision; text-rendering:geometricPrecision; image-rendering:optimizeQuality; fill-rule:evenodd; clip-rule:evenodd"
viewBox="0 0 9600 9600"
 xmlns:xlink="http://www.w3.org/1999/xlink">
 <defs>
  <style type="text/css">
   <![CDATA[
    .str0 {fill:#143F6D;stroke:#143F6D;stroke-width:7.62;stroke-miterlimit:22.9256}
    .str1 {fill:#2570C1;stroke:#2570C1;stroke-width:7.62;stroke-miterlimit:22.9256}
    .str2 {fill:white;stroke:white;stroke-width:7.62;stroke-miterlimit:22.9256}
    .str3 {fill:#1C5491;stroke:#1C5491;stroke-width:7.62;stroke-miterlimit:22.9256}
    .str4 {fill:none;stroke:white;stroke-width:300;stroke-miterlimit:22.9256}
   ]]>
  </style>
 </defs>
 <g id="Capa_x0020_1">
  <path class="fil0 str0" d="M8833.08 7130.06c-79.43,137.25 -238.29,228.99 -397.16,320.72l-3160.32 1824.84c-158.96,91.65 -317.92,183.31 -476.6,183.34 -158.68,0.02 -317.09,-91.57 -475.49,-183.17l-3162.98 -1826.37c-158.08,-91.28 -316.17,-182.56 -395.21,-319.07l4033.88 -2329.62 4033.88 2329.33z"/>
  <path class="fil1 str1" d="M765.32 7130.35c-79.04,-136.52 -79.04,-318.28 -79.04,-500.03l0 -3659.47c0,-181.76 0,-363.51 79.04,-500.03 79.04,-136.52 237.13,-227.79 395.21,-319.07l3162.98 -1826.37c158.4,-91.6 316.81,-183.2 475.49,-183.17 158.68,0.03 317.64,91.68 476.6,183.34l3160.32 1824.84c158.87,91.73 317.73,183.46 397.16,320.72l-8067.76 4659.24z"/>
  <path class="fil2 str2" d="M4799.2 1700.73c1712.08,0 3100,1387.92 3100,3100 0,1712.08 -1387.92,3100 -3100,3100 -1712.08,0 -3100,-1387.92 -3100,-3100 0,-1712.08 1387.92,-3100 3100,-3100zm0 1314.72c986.03,0 1785.35,799.34 1785.35,1785.35 0,986.01 -799.32,1785.35 -1785.35,1785.35 -986.03,0 -1785.35,-799.34 -1785.35,-1785.35 0,-986.01 799.32,-1785.35 1785.35,-1785.35z"/>
  <path class="fil3 str3" d="M8833.08 7130.06c79.44,-137.25 79.44,-320.03 79.44,-502.8l0 -3653.35c0,-182.78 0,-365.55 -79.37,-502.67l-4033.95 2329.49 4033.88 2329.33z"/>
  <path class="fil4 str4" d="M6829.43 4300.54l0 1000m-500 -500.01l1000 0"/>
  <path class="fil4 str4" d="M8083.9 4300.57l0 1000m-500 -500.01l1000 0"/>
 </g>
</svg>
