<?xml version="1.0" encoding="UTF-8"?>
<!DOCTYPE svg PUBLIC "-//W3C//DTD SVG 1.1//EN" "http://www.w3.org/Graphics/SVG/1.1/DTD/svg11.dtd">
<svg xmlns="http://www.w3.org/2000/svg" xml:space="preserve" width="100mm" height="100mm" version="1.1" style="shape-rendering:geometricPrecision; text-rendering:geometricPrecision; image-rendering:optimizeQuality; fill-rule:evenodd; clip-rule:evenodd"
viewBox="0 0 10000 10000"
 xmlns:xlink="http://www.w3.org/1999/xlink">
 <defs>
  <style type="text/css">
   <![CDATA[
    .str1 {stroke:#143F6D;stroke-width:7.62;stroke-miterlimit:22.9256}
    .str0 {stroke:#1C5491;stroke-width:7.62;stroke-miterlimit:22.9256}
    .str2 {stroke:#2570C1;stroke-width:7.62;stroke-miterlimit:22.9256}
    .str3 {stroke:white;stroke-width:1000;stroke-linecap:round;stroke-linejoin:round;stroke-miterlimit:22.9256}
    .fil3 {fill:none}
    .fil1 {fill:#143F6D}
    .fil0 {fill:#1C5491}
    .fil2 {fill:#2570C1}
   ]]>
  </style>
 </defs>
 <g id="Capa_x0020_1">
  <path class="fil0 str0" d="M4996.2 5003.8l4551.04 -4551.04c152.89,153.69 248.96,367.11 248.96,601.04l0 7900c0,234.53 -95.38,447.26 -248.96,601.04l-4551.04 -4551.04z"/>
  <path class="fil1 str1" d="M445.15 9554.84l4551.05 -4551.04 4551.04 4551.04c-153.84,154.04 -366.12,248.96 -601.04,248.96l-7900 0c-234.83,0 -447.23,-95.02 -601.05,-248.96z"/>
  <path class="fil2 str2" d="M445.15 9554.84l9102.09 -9102.08c-153.93,-154.73 -365.52,-248.96 -601.04,-248.96l-7900 0c-469.44,0 -850,380.55 -850,850l0 7900c0,234.62 95.26,447.25 248.95,601.04z"/>
  <line class="fil3 str3" x1="5542.76" y1="7308.28" x2="7412.56" y2= "7307.98" />
  <polyline class="fil3 str3" points="2885.48,2723.23 5191.54,5018.33 2884.74,7308.29 "/>
 </g>
</svg>
